<svg width="399" height="292" viewBox="0 0 399 292" fill="none" xmlns="http://www.w3.org/2000/svg">
<path d="M109.027 288.311L111.135 3.67657C111.147 2.09152 112.91 1.14938 114.234 2.02043L332.426 145.534C333.636 146.33 333.625 148.108 332.406 148.889L112.106 290.01C110.769 290.867 109.016 289.899 109.027 288.311Z" fill="#ABB1CC"/>
<path d="M242.995 171.765H234.635C233.258 171.765 232.569 171.078 232.569 169.704V110.715C232.569 109.341 233.258 108.653 234.635 108.653H258.634C263.749 108.653 267.716 110.06 270.536 112.874C273.355 115.622 274.765 119.548 274.765 124.652V134.075C274.765 139.179 273.355 143.137 270.536 145.951C267.716 148.699 263.749 150.073 258.634 150.073H246.241C245.454 150.073 245.061 150.433 245.061 151.153V169.704C245.061 171.078 244.372 171.765 242.995 171.765ZM246.143 139.179H256.569C258.667 139.179 260.143 138.753 260.995 137.903C261.847 136.986 262.274 135.514 262.274 133.486V125.241C262.274 123.147 261.847 121.675 260.995 120.824C260.143 119.908 258.667 119.45 256.569 119.45H246.143C245.421 119.45 245.061 119.81 245.061 120.53V138.099C245.061 138.819 245.421 139.179 246.143 139.179Z" fill="#E61C44"/>
<path d="M294.661 171.765H286.3C284.923 171.765 284.235 171.078 284.235 169.704V104.826C284.235 103.451 284.923 102.764 286.3 102.764H294.661C296.038 102.764 296.726 103.451 296.726 104.826V169.704C296.726 171.078 296.038 171.765 294.661 171.765Z" fill="#E61C44"/>
<path d="M325.651 171.765H323.29C318.11 171.765 314.11 170.391 311.29 167.642C308.471 164.894 307.061 160.935 307.061 155.766V137.706C307.061 132.537 308.471 128.578 311.29 125.83C314.11 123.082 318.11 121.708 323.29 121.708H346.011C347.454 121.708 348.175 122.395 348.175 123.769V169.704C348.175 171.078 347.454 171.765 346.011 171.765H337.749C336.372 171.765 335.683 171.078 335.683 169.704V166.465H335.29C334.569 168.231 333.29 169.573 331.454 170.489C329.618 171.339 327.683 171.765 325.651 171.765ZM335.683 153.509V133.584C335.683 132.864 335.29 132.504 334.503 132.504H325.257C323.159 132.504 321.684 132.962 320.831 133.878C319.979 134.729 319.552 136.201 319.552 138.295V155.177C319.552 157.271 319.979 158.776 320.831 159.692C321.684 160.543 323.159 160.968 325.257 160.968H328.897C333.421 160.968 335.683 158.482 335.683 153.509Z" fill="#E61C44"/>
<path d="M367.117 188.352H360.822C359.51 188.352 358.855 187.633 358.855 186.193V179.617C358.855 178.177 359.51 177.458 360.822 177.458H362.887C367.018 177.458 369.805 176.869 371.248 175.691C372.756 174.578 373.903 172.386 374.69 169.115H369.477C368.231 169.115 367.412 168.428 367.018 167.053L355.51 123.769C355.117 122.395 355.609 121.708 356.986 121.708H365.74C367.051 121.708 367.871 122.395 368.199 123.769L376.658 159.987H377.051L385.412 123.769C385.674 122.395 386.493 121.708 387.87 121.708H396.133C397.772 121.708 398.428 122.427 398.1 123.867L386.1 171.765C384.657 177.196 382.428 181.318 379.412 184.132C376.395 186.945 372.297 188.352 367.117 188.352Z" fill="#E61C44"/>
<path d="M26.6553 171.765H16.2292C11.049 171.765 7.04906 170.391 4.22944 167.642C1.40981 164.894 0 160.935 0 155.766V124.652C0 119.483 1.40981 115.524 4.22944 112.776C7.04906 110.028 11.049 108.653 16.2292 108.653H26.6553C31.77 108.653 35.7371 110.06 38.5567 112.874C41.3764 115.622 42.7862 119.548 42.7862 124.652V127.597C42.7862 129.036 42.0977 129.756 40.7206 129.756H32.3601C30.9831 129.756 30.2946 129.036 30.2946 127.597V125.241C30.2946 123.147 29.8684 121.675 29.0159 120.824C28.1635 119.908 26.6881 119.45 24.5898 119.45H18.1964C16.1637 119.45 14.6883 119.908 13.7703 120.824C12.9178 121.675 12.4916 123.147 12.4916 125.241V155.177C12.4916 157.271 12.9178 158.776 13.7703 159.692C14.6883 160.543 16.1637 160.968 18.1964 160.968H24.5898C26.6881 160.968 28.1635 160.543 29.0159 159.692C29.8684 158.776 30.2946 157.271 30.2946 155.177V148.994C30.2946 148.274 29.9339 147.914 29.2126 147.914H23.3111C21.9341 147.914 21.2456 147.227 21.2456 145.853V139.178C21.2456 137.804 21.9341 137.117 23.3111 137.117H40.5239C42.0321 137.117 42.7862 137.87 42.7862 139.375V155.766C42.7862 160.87 41.3764 164.829 38.5567 167.642C35.7371 170.391 31.77 171.765 26.6553 171.765Z" fill="#0E1647"/>
<path d="M71.2043 171.765H68.8436C63.6634 171.765 59.6635 170.391 56.8438 167.642C54.0242 164.894 52.6144 160.935 52.6144 155.766V137.706C52.6144 132.537 54.0242 128.578 56.8438 125.83C59.6635 123.082 63.6634 121.708 68.8436 121.708H91.5646C93.0072 121.708 93.7285 122.395 93.7285 123.769V146.736V169.704C93.7285 171.078 93.0072 171.765 91.5646 171.765H83.3024C81.9254 171.765 81.2369 171.078 81.2369 169.704V166.465H80.8435C80.1222 168.231 78.8435 169.573 77.0074 170.489C75.1714 171.339 73.237 171.765 71.2043 171.765ZM81.2369 153.509V133.584C81.2369 132.864 80.8434 132.504 80.0566 132.504H70.8108C68.7125 132.504 67.2371 132.962 66.3847 133.878C65.5322 134.729 65.106 136.201 65.106 138.295V155.177C65.106 157.271 65.5322 158.776 66.3847 159.692C67.2371 160.543 68.7125 160.968 70.8108 160.968H74.4501C78.9746 160.968 81.2369 158.482 81.2369 153.509Z" fill="#0E1647"/>
<path d="M114.933 171.765H106.572C105.195 171.765 104.506 171.078 104.506 169.704V123.769C104.506 122.395 105.195 121.708 106.572 121.708H114.933C116.31 121.708 116.998 122.395 116.998 123.769V127.008H117.392C118.178 125.437 119.49 124.161 121.326 123.18C123.227 122.198 125.391 121.708 127.818 121.708H130.572C136.276 121.708 140.375 123.801 142.867 127.989C145.096 123.801 148.932 121.708 154.375 121.708H157.227C162.276 121.708 166.079 123.082 168.637 125.83C171.259 128.578 172.571 132.537 172.571 137.706V169.704C172.571 171.078 171.882 171.765 170.505 171.765H162.145C160.768 171.765 160.079 171.078 160.079 169.704V138.295C160.079 136.201 159.653 134.729 158.801 133.878C157.948 132.962 156.473 132.504 154.375 132.504H151.916C147.391 132.504 145.129 135.023 145.129 140.062V169.704C145.129 171.078 144.407 171.765 142.965 171.765H134.703C133.326 171.765 132.637 171.078 132.637 169.704V138.295C132.637 136.201 132.178 134.729 131.26 133.878C130.408 132.962 128.932 132.504 126.834 132.504H123.785C119.26 132.504 116.998 134.991 116.998 139.964V169.704C116.998 171.078 116.31 171.765 114.933 171.765Z" fill="#0E1647"/>
<path d="M219.965 171.765H198.228C193.048 171.765 189.048 170.391 186.228 167.642C183.409 164.894 181.999 160.935 181.999 155.766V137.706C181.999 132.537 183.409 128.578 186.228 125.83C189.048 123.082 193.048 121.708 198.228 121.708H205.998C211.179 121.708 215.179 123.082 217.998 125.83C220.818 128.578 222.228 132.537 222.228 137.706V150.171C222.228 151.546 221.539 152.233 220.162 152.233H195.474C194.687 152.233 194.294 152.592 194.294 153.312V155.472C194.294 157.5 194.72 158.972 195.572 159.888C196.49 160.739 197.999 161.164 200.097 161.164H219.965C221.342 161.164 222.031 161.884 222.031 163.324V169.802C222.031 170.521 221.867 171.045 221.539 171.372C221.277 171.634 220.752 171.765 219.965 171.765ZM195.474 143.89H208.851C209.572 143.89 209.933 143.53 209.933 142.81V138.099C209.933 136.005 209.507 134.533 208.654 133.682C207.802 132.831 206.326 132.406 204.228 132.406H200.097C197.999 132.406 196.523 132.831 195.671 133.682C194.818 134.533 194.392 136.005 194.392 138.099V142.81C194.392 143.53 194.753 143.89 195.474 143.89Z" fill="#0E1647"/>
</svg>
